<?xml version="1.0" encoding="UTF-8" standalone="no"?>
<!DOCTYPE svg PUBLIC "-//W3C//DTD SVG 1.1//EN" "http://www.w3.org/Graphics/SVG/1.1/DTD/svg11.dtd">
<svg width="100%" height="100%" viewBox="0 0 899 1288" version="1.1" xmlns="http://www.w3.org/2000/svg" xmlnsXlink="http://www.w3.org/1999/xlink" xmlSpace="preserve" xmlnsserif="http://www.serif.com/" style="fill-rule:evenodd;clip-rule:evenodd;stroke-linejoin:round;stroke-miterlimit:2;">
    <g transform="matrix(1,0,0,1,-4275,-2167)">
        <g transform="matrix(1,0,0,1,2021.73,1456.73)">
            <rect id="logotip" serifid="logotip" x="2253.86" y="710.59" width="897.638" height="1287.4" style="fill:none;"/>
            <g id="logotip" serifid="logotip">
                <g>
                    <g transform="matrix(1,0,0,1,-2021.73,-1456.73)">
                        <path d="M4753.71,2920.62C4751.14,2920.79 4748.54,2920.88 4745.93,2920.88C4663.14,2920.88 4595.93,2830.67 4595.93,2719.55C4595.93,2619.51 4650.41,2536.41 4721.69,2520.84C4722.88,2512.71 4726.15,2493.74 4733.51,2471.35C4635.65,2552.93 4505.97,2537.34 4529.29,2517.36C4598.43,2458.13 4682.75,2453.93 4719.1,2460.03C4688.1,2440.09 4628.55,2380.24 4617.26,2289.9C4613.46,2259.49 4719.45,2334.86 4737.27,2460.62C4745.75,2437.88 4758.41,2412.98 4777.1,2392.79L4800.02,2414.01C4768.55,2448.01 4757.18,2497.61 4753.62,2518.48C4782.18,2520.42 4808.64,2533.1 4830.81,2553.57L4753.71,2553.57L4753.71,2578.97C4769.67,2579.44 4785.51,2576.82 4801.45,2576.64C4819.32,2576.45 4836.69,2580.11 4854.45,2580.61C4862.88,2592.46 4870.24,2605.69 4876.33,2620.02C4870.64,2620.82 4864.94,2621.2 4859.22,2620.65C4840.5,2618.82 4824.71,2604.65 4805.71,2604.42C4787.88,2604.21 4771.54,2613.94 4753.71,2614.09L4753.71,2639.5C4771.73,2638.96 4786.73,2624.38 4804.74,2624.8C4811.04,2624.94 4817.24,2627.99 4822.69,2630.9C4834.51,2637.22 4846.03,2647.14 4859.54,2649.4C4865.95,2650.47 4872.97,2648.74 4879.19,2647.22C4881.29,2646.71 4883.38,2646.14 4885.47,2645.56C4888.63,2656.28 4891.12,2667.45 4892.88,2678.97C4888.34,2680.37 4883.82,2681.88 4879.27,2683.12C4873.09,2684.79 4866.05,2686.62 4859.64,2685.52C4845.83,2683.14 4834.27,2672.01 4822.49,2665.11C4817.08,2661.94 4810.88,2658.62 4804.47,2658.48C4786.27,2658.07 4771.92,2674.19 4753.71,2674.61L4753.71,2700.02C4771.6,2699.62 4787.34,2687.48 4805.22,2687.81C4824.88,2688.18 4840.16,2705.63 4859.38,2708.26C4871.35,2709.89 4883.4,2706.11 4895.44,2703.15C4895.77,2708.56 4895.94,2714.03 4895.94,2719.55C4895.94,2725.11 4895.77,2730.62 4895.44,2736.06C4882.32,2737.23 4869.22,2738.96 4856.05,2738.16C4838.35,2737.07 4821.77,2730.51 4803.88,2730.66C4787.04,2730.81 4770.57,2735.51 4753.71,2735.14L4753.71,2920.62ZM4892.81,2760.58C4890.94,2772.71 4888.25,2784.44 4884.83,2795.66L4780.15,2795.66L4780.15,2760.29C4786.41,2760.13 4792.68,2759.96 4798.95,2759.94C4816.98,2759.89 4834.96,2760.96 4852.98,2761.05C4866.25,2761.12 4879.53,2760.76 4892.81,2760.58ZM4875.47,2821.07C4869.95,2833.72 4863.43,2845.49 4856.06,2856.19L4780.15,2856.19L4780.15,2821.07L4875.47,2821.07ZM4834.92,2881.6C4818.82,2897.56 4800.26,2909.3 4780.15,2915.61L4780.15,2881.6L4834.92,2881.6Z" style="fill:rgb(48,46,44);"/>
                    </g>
                    <g transform="matrix(0.414689,0,0,0.414689,2249.97,1428.22)">
                        <path d="M456.129,842.044C448.97,842.044 440.805,840.478 431.633,837.346C422.461,834.214 414.519,829.74 407.808,823.924C401.097,818.107 397.07,811.62 395.728,804.461C394.386,798.197 393.714,792.157 393.714,786.341C393.714,771.129 397.965,758.825 406.466,749.429C414.967,740.034 424.81,731.085 435.995,722.584C436.89,721.69 438.12,720.683 439.686,719.564C441.252,718.446 442.706,717.887 444.049,717.887C449.865,714.307 455.569,710.84 461.162,707.484C466.755,704.129 472.683,700.661 478.947,697.082C481.184,695.74 483.868,694.397 487,693.055C489.685,692.608 492.146,691.489 494.383,689.699C497.962,687.462 501.429,685.225 504.785,682.988C508.141,680.751 511.384,678.514 514.516,676.277C520.333,671.803 527.715,669.566 536.663,669.566L538.006,669.566L539.348,670.237C549.638,666.21 561.607,661.96 575.253,657.486C588.899,653.011 602.769,649.32 616.862,646.412C630.956,643.504 643.372,642.05 654.11,642.05C655.452,642.05 658.584,642.385 663.505,643.056C668.427,643.728 670.888,645.182 670.888,647.419C670.888,648.761 669.881,649.544 667.868,649.768C665.854,649.991 664.624,650.103 664.176,650.103C659.255,650.998 654.781,650.998 650.754,650.103C648.517,650.103 646.168,650.215 643.707,650.439C641.246,650.663 638.898,650.998 636.66,651.446C636.66,655.472 634.871,657.486 631.291,657.486C625.028,657.486 618.764,659.499 612.5,663.526C606.684,667.552 600.42,669.566 593.709,669.566C591.472,669.566 589.011,670.013 586.326,670.908C583.642,671.803 581.181,672.25 578.944,672.25C574.47,672.25 570.667,673.145 567.535,674.935C564.403,676.724 560.6,678.067 556.126,678.961C553.889,680.751 551.987,681.982 550.421,682.653C548.855,683.324 546.506,683.659 543.375,683.659L541.361,682.988L540.019,682.317C537.782,683.212 535.321,684.107 532.637,685.002C529.952,685.896 527.268,686.791 524.583,687.686L509.818,693.726C497.738,700.437 486.777,708.155 476.933,716.88C467.09,725.604 456.129,729.967 444.049,729.967C441.811,733.099 439.127,737.014 435.995,741.711C432.863,746.409 431.297,750.548 431.297,754.127C431.297,757.706 429.284,759.944 425.257,760.838L425.257,767.55C425.257,771.129 424.139,774.037 421.902,776.274C424.139,778.511 425.257,780.525 425.257,782.314C425.257,784.551 424.362,786.341 422.573,787.683C423.02,788.578 423.467,789.585 423.915,790.703C424.362,791.822 424.586,792.828 424.586,793.723C424.586,795.066 423.915,796.184 422.573,797.079L422.573,797.75C425.257,800.435 429.843,802.895 436.331,805.132C442.818,807.369 447.852,808.488 451.431,808.488C458.142,808.488 467.314,806.363 478.947,802.112C490.58,797.862 502.772,792.717 515.523,786.677C528.274,780.636 540.466,774.708 552.099,768.892C563.732,763.075 572.904,758.378 579.615,754.798L579.615,754.127C582.747,754.127 584.984,754.015 586.326,753.792C587.669,753.568 588.563,751.666 589.011,748.087L595.051,742.047L603.775,741.376C607.802,739.139 611.829,737.014 615.856,735C619.882,732.987 623.909,731.309 627.936,729.967C629.726,727.73 635.206,723.367 644.378,716.88C653.55,710.392 664.176,703.234 676.257,695.404C688.337,687.574 699.858,680.304 710.819,673.593C721.781,666.881 729.946,662.183 735.315,659.499C738.895,655.472 741.803,649.432 744.04,641.379C746.277,633.325 747.843,626.838 748.738,621.916L747.396,613.192C746.501,607.823 744.264,603.796 740.684,601.111C734.868,596.19 724.801,592.611 710.484,590.373C697.956,588.584 681.849,587.018 662.163,585.676C642.477,584.333 625.028,583.215 609.816,582.32C600.42,581.425 591.36,580.307 582.635,578.964C573.911,577.622 565.745,575.832 558.139,573.595C542.48,569.569 529.169,563.305 518.207,554.804C507.246,546.303 500.646,534.67 498.409,519.906L494.383,522.59L492.369,520.577L492.369,516.55C491.922,516.103 491.698,514.984 491.698,513.194C491.698,497.535 495.613,482.323 503.443,467.558C511.273,452.793 521.116,439.035 532.972,426.284C544.829,413.533 556.797,402.907 568.877,394.406C584.984,383.668 601.538,372.93 618.54,362.192C635.542,351.454 653.215,342.73 671.559,336.018C680.507,332.439 689.679,329.643 699.075,327.629C708.47,325.616 717.866,323.938 727.262,322.596C730.841,321.701 734.309,321.03 737.664,320.583C741.02,320.135 744.487,319.688 748.067,319.24C751.646,318.793 755.113,318.122 758.469,317.227C761.825,316.332 765.068,315.437 768.2,314.542C779.386,314.542 790.124,315.549 800.414,317.562C810.705,319.576 818.087,326.175 822.561,337.361C826.14,336.018 827.93,333.334 827.93,329.307L827.93,324.609C827.93,323.267 827.706,321.701 827.259,319.911C826.812,318.122 826.588,315.214 826.588,311.187C826.588,305.818 825.469,301.791 823.232,299.107L826.588,297.093L827.93,297.093C832.852,297.093 840.234,298.659 850.077,301.791C859.92,304.923 869.54,308.614 878.935,312.865C888.331,317.115 894.595,321.254 897.727,325.28L896.385,338.032L878.935,346.756L871.553,345.414C867.974,346.756 865.96,349.553 865.513,353.803C865.066,358.053 864.842,362.304 864.842,366.554C864.842,370.805 863.5,373.601 860.815,374.943L851.419,372.93L850.748,373.601L859.473,384.339L858.131,387.695L861.486,391.721L858.802,393.735L851.419,391.05C850.077,395.524 849.406,400.446 849.406,405.815C849.406,411.184 848.735,415.77 847.393,419.573C846.05,423.376 842.695,425.725 837.326,426.62C832.404,431.989 829.72,436.91 829.272,441.384C828.825,445.859 828.042,449.662 826.923,452.793C825.805,455.925 821.219,458.386 813.165,460.176L813.165,458.834L814.508,440.713L809.81,436.687C810.705,425.949 811.823,415.211 813.165,404.473C814.508,393.735 816.745,383.221 819.877,372.93C813.613,367.114 806.902,361.968 799.743,357.494C792.584,353.02 784.531,350.783 775.583,350.783L771.556,350.783C770.214,350.783 768.871,351.007 767.529,351.454C766.187,351.902 764.845,352.125 763.502,352.125L759.476,352.125C760.371,355.257 758.133,357.606 752.765,359.172C747.396,360.738 743.593,361.521 741.355,361.521C739.118,361.521 737.329,360.85 735.986,359.508C733.302,358.613 731.289,358.165 729.946,358.165C727.709,359.955 725.584,361.521 723.571,362.863C721.557,364.205 718.761,364.877 715.182,364.877C711.602,364.877 708.247,366.442 705.115,369.574C701.536,373.154 697.061,374.943 691.692,374.943C687.666,374.943 684.086,373.825 680.954,371.588C679.165,372.035 677.151,374.272 674.914,378.299C673.125,382.326 669.993,384.339 665.519,384.339C664.624,384.339 663.953,384.115 663.505,383.668C663.058,383.221 662.61,382.997 662.163,382.997C661.716,382.997 661.268,382.773 660.821,382.326C659.479,384.563 657.913,385.458 656.123,385.01C653.886,384.115 651.649,384.786 649.412,387.024C648.07,387.918 646.951,389.037 646.056,390.379C644.714,391.721 642.924,392.393 640.687,392.393L635.318,396.419L632.634,393.735C628.607,395.972 625.923,398.321 624.58,400.782C623.238,403.242 621.672,405.256 619.882,406.822C618.093,408.388 614.29,409.171 608.473,409.171L592.366,421.251C591.024,422.146 589.906,423.264 589.011,424.606C587.669,426.843 586.103,428.186 584.313,428.633C582.971,433.555 579.951,437.805 575.253,441.384C570.555,444.964 565.969,447.648 561.495,449.438C559.705,453.465 556.797,455.478 552.77,455.478C550.086,458.162 547.066,462.86 543.71,469.572C540.354,476.283 537.446,483.106 534.986,490.041C532.525,496.976 531.294,502.456 531.294,506.483C531.294,514.984 531.742,520.241 532.637,522.255C533.531,524.268 535.433,525.722 538.341,526.617C541.249,527.512 545.388,530.644 550.757,536.013C555.678,541.382 562.39,544.961 570.891,546.751C579.391,548.54 587.221,550.106 594.38,551.448C596.169,551.448 597.064,552.119 597.064,553.462C597.064,554.357 596.617,554.804 595.722,554.804L593.038,554.804C589.011,554.804 583.306,554.468 575.924,553.797C568.542,553.126 561.495,551.784 554.784,549.771C548.072,547.757 543.375,544.961 540.69,541.382C540.243,540.934 540.019,540.487 540.019,540.039L539.348,539.368C533.084,539.368 528.162,536.796 524.583,531.65C521.004,526.505 519.214,521.024 519.214,515.208C519.214,511.181 519.438,508.273 519.885,506.483C520.333,505.141 520.556,503.799 520.556,502.456C520.556,501.114 520.78,499.548 521.228,497.759L519.885,497.759C517.648,497.759 516.418,500.219 516.194,505.141C515.97,510.063 515.859,512.971 515.859,513.866L515.859,520.241C515.859,522.255 516.082,523.709 516.53,524.604C518.319,535.341 524.248,543.619 534.314,549.435C544.381,555.251 557.021,559.39 572.233,561.851C587.445,564.312 603.887,565.654 621.56,565.877C639.233,566.101 656.794,565.989 674.243,565.542C691.692,565.542 708.918,565.766 725.92,566.213C742.921,566.66 758.581,568.338 772.898,571.246C787.215,574.155 798.624,578.741 807.125,585.004C815.626,591.268 819.877,600.217 819.877,611.849C819.877,618.113 818.534,624.377 815.85,630.641C814.06,633.773 812.606,636.905 811.488,640.036C810.369,643.168 809.362,646.3 808.468,649.432C801.309,653.011 797.059,656.703 795.716,660.506C794.374,664.309 791.913,669.342 788.334,675.606C785.649,676.501 781.958,679.185 777.26,683.659C772.563,688.133 767.977,692.272 763.502,696.075C759.028,699.878 755.449,701.78 752.765,701.78C749.633,703.122 746.836,704.912 744.375,707.149C741.915,709.386 740.237,712.294 739.342,715.873L735.986,713.86C730.617,721.466 721.445,730.19 708.47,740.034C695.048,749.429 679.5,758.825 661.828,768.221C644.155,777.616 625.251,786.788 605.118,795.737C584.984,804.238 565.522,812.291 546.73,819.897C527.491,826.608 509.93,831.977 494.047,836.004C478.164,840.031 465.524,842.044 456.129,842.044ZM805.112,477.625L807.125,463.531L813.837,466.887L805.112,477.625ZM760.818,595.071L762.831,589.702L758.133,587.018L753.436,590.373L760.818,595.071ZM809.81,621.916L809.81,620.574L802.428,613.192L802.428,621.245L809.81,621.916ZM793.032,639.365L800.414,635.339C800.414,628.627 799.519,623.258 797.73,619.232C795.493,621.469 793.591,624.041 792.025,626.95C790.459,629.858 789.676,633.102 789.676,636.681L789.676,638.694L793.032,639.365ZM796.387,652.117L804.441,640.708L804.441,639.365L789.005,646.077L792.361,650.774L796.387,652.117ZM760.147,689.028L770.885,686.344L776.925,671.579L766.187,682.317L761.489,679.633L759.476,687.686L760.147,689.028ZM783.636,252.799L779.609,252.128L777.596,247.43L776.925,247.43L774.24,242.732C767.082,237.363 761.042,231.211 756.12,224.277C751.199,217.342 746.724,209.624 742.698,201.123C740.908,198.438 739.23,195.866 737.664,193.405C736.098,190.944 734.868,188.148 733.973,185.016C733.973,180.989 734.309,178.528 734.98,177.634C735.651,176.739 735.986,176.291 735.986,176.291C736.434,176.291 736.658,176.179 736.658,175.956C736.658,175.732 737.105,175.62 738,175.62C738.895,176.068 739.901,176.291 741.02,176.291C742.138,176.291 743.145,176.739 744.04,177.634C745.382,178.081 746.501,179.423 747.396,181.66C748.29,183.897 749.633,185.24 751.422,185.687L751.758,185.687C751.982,185.687 751.87,185.911 751.422,186.358C752.765,187.7 754.778,190.049 757.462,193.405C760.147,196.761 762.384,198.438 764.174,198.438C764.174,198.438 764.062,198.662 763.838,199.109C763.614,199.557 763.726,199.781 764.174,199.781L764.174,200.452C766.411,200.452 767.865,201.458 768.536,203.472C769.207,205.485 770.437,206.939 772.227,207.834C773.569,209.176 775.023,210.071 776.589,210.519C778.155,210.966 779.833,211.637 781.623,212.532C782.518,212.979 783.189,213.874 783.636,215.216C784.084,216.559 784.978,217.677 786.321,218.572L790.347,220.585C791.242,220.585 791.69,220.809 791.69,221.256L801.085,223.941C803.322,222.599 805.783,221.256 808.468,219.914C811.152,218.572 812.942,217.677 813.837,217.23C816.968,215.44 819.653,214.322 821.89,213.874C824.127,213.427 826.364,212.756 828.601,211.861C831.733,210.071 834.306,208.393 836.319,206.827C838.333,205.261 840.905,204.478 844.037,204.478C844.932,204.478 845.379,203.36 845.379,201.123C847.169,201.57 850.972,200.116 856.788,196.761C862.605,193.405 866.408,191.28 868.197,190.385C868.197,189.937 868.421,189.714 868.869,189.714C871.106,189.714 873.902,188.483 877.258,186.023C880.613,183.562 883.186,181.884 884.975,180.989C886.318,180.542 887.548,180.318 888.667,180.318C889.785,180.318 890.568,180.094 891.016,179.647C891.463,179.2 892.134,178.976 893.029,178.976L893.029,179.647C893.029,180.094 892.693,181.101 892.022,182.667C891.351,184.233 889.673,186.358 886.989,189.043C883.857,192.175 880.278,194.971 876.251,197.432C872.224,199.892 868.197,202.465 864.171,205.15C852.538,212.756 841.017,220.138 829.608,227.297C818.199,234.455 806.454,241.166 794.374,247.43C792.584,247.878 790.907,248.661 789.341,249.779C787.775,250.898 785.873,251.904 783.636,252.799Z" style="fill:rgb(29,29,27);fill-rule:nonzero;"/>
                        <path d="M862.828,703.122C859.249,704.912 856.453,704.688 854.439,702.451C852.426,700.214 852.314,697.977 854.104,695.74C856.341,693.502 857.683,691.489 858.131,689.699C858.578,687.91 858.802,685.896 858.802,683.659L858.802,678.29C858.802,675.158 859.025,673.369 859.473,672.921L863.5,668.895C863.947,668 865.289,667.105 867.526,666.21L870.882,656.814C867.75,653.235 868.197,649.432 872.224,645.405L872.895,644.734L872.895,644.063L874.238,642.05L878.264,635.339L878.935,633.996L880.278,633.996C879.383,631.759 880.054,629.298 882.291,626.614C883.186,624.377 884.528,622.14 886.318,619.903C888.107,617.666 889.897,615.205 891.687,612.52C896.161,607.599 898.622,603.125 899.069,599.098C899.964,595.519 901.977,592.387 905.109,589.702C904.662,589.702 904.438,589.255 904.438,588.36C904.438,587.913 904.214,587.689 903.767,587.689C903.767,587.242 903.991,586.794 904.438,586.347L904.438,585.676C905.333,584.781 906.899,582.432 909.136,578.629C911.373,574.826 913.61,570.911 915.847,566.884C916.742,565.542 917.637,564.2 918.532,562.857C919.426,561.515 920.321,559.949 921.216,558.16L924.572,552.119L906.451,546.079C897.503,542.947 889.673,538.585 882.962,532.993C876.251,527.4 872.895,519.235 872.895,508.497C872.895,503.575 874.349,499.325 877.258,495.745C880.166,492.166 883.186,489.034 886.318,486.35C888.107,484.56 889.002,483.441 889.002,482.994C892.582,478.52 896.161,477.289 899.74,479.303C903.319,481.316 903.319,484.112 899.74,487.692L895.713,493.061C893.924,495.745 892.134,498.318 890.344,500.779C888.555,503.239 887.66,506.26 887.66,509.839C887.66,514.313 890.904,518.228 897.391,521.583C903.879,524.939 911.037,527.512 918.867,529.301C926.697,531.091 932.178,531.986 935.31,531.986C953.654,507.825 971.774,483.889 989.67,460.176C1007.57,436.463 1025.46,412.526 1043.36,388.366C1045.15,386.576 1046.05,383.444 1046.05,378.97L1070.88,352.796C1072.67,353.691 1074.34,354.362 1075.91,354.81C1077.48,355.257 1079.15,355.705 1080.94,356.152C1082.73,356.599 1084.41,357.047 1085.98,357.494C1087.54,357.942 1089.22,358.389 1091.01,358.836C1094.59,359.731 1097.94,360.85 1101.08,362.192C1104.21,363.534 1107.12,365.771 1109.8,368.903C1114.72,373.825 1117.18,379.865 1117.18,387.024C1117.18,394.63 1114.05,401.117 1107.79,406.486C1101.08,411.855 1095.26,417 1090.34,421.922C1088.55,423.264 1086.87,424.606 1085.31,425.949C1083.74,427.291 1082.06,428.857 1080.27,430.646C1076.69,434.226 1072.67,436.015 1068.19,436.015L1068.19,431.318L1070.2,431.318C1072,429.081 1073.9,426.62 1075.91,423.935C1077.92,421.251 1079.82,418.79 1081.61,416.553C1086.09,411.631 1089.44,406.71 1091.68,401.788C1089.89,403.578 1088.21,405.144 1086.65,406.486C1085.08,407.828 1083.4,409.171 1081.61,410.513C1079.82,411.855 1078.15,413.309 1076.58,414.875C1075.02,416.441 1073.34,418.119 1071.55,419.909C1069.31,423.04 1065.73,427.403 1060.81,432.995C1055.89,438.588 1050.52,444.516 1044.7,450.78C1039.78,457.044 1034.75,462.637 1029.6,467.558C1024.46,472.48 1020.77,476.059 1018.53,478.296L1017.86,478.967L1020.54,481.652L1011.82,485.007L1012.49,485.678C1012.49,489.258 1011.37,491.719 1009.13,493.061C1006.9,494.403 1004.66,495.074 1002.42,495.074C1001.53,497.759 1000.3,500.108 998.731,502.121C997.165,504.134 994.592,505.812 991.013,507.154C991.46,507.602 991.684,508.273 991.684,509.168C991.684,509.615 991.908,510.063 992.355,510.51C992.355,510.957 992.579,511.405 993.026,511.852L991.684,511.852L991.684,513.194L988.328,513.194C987.881,513.194 987.433,514.089 986.986,515.879L988.999,519.235C989.447,519.682 989.67,520.577 989.67,521.919C995.934,515.208 1001.97,508.497 1007.79,501.785C1013.61,495.074 1019.65,488.139 1025.91,480.981L1062.15,440.713L1063.49,440.713C1063.49,441.161 1063.72,441.384 1064.16,441.384C1064.16,441.832 1064.39,442.056 1064.84,442.056C1064.84,445.187 1062.38,450.109 1057.45,456.82C1052.53,463.531 1046.49,470.802 1039.33,478.632C1032.17,486.461 1025.35,493.956 1018.86,501.114C1012.38,508.273 1007.34,513.866 1003.76,517.892C1002.42,519.235 1000.86,521.248 999.066,523.932C997.724,525.275 996.158,527.288 994.368,529.972L1000.41,529.972C1006.23,529.972 1011.48,529.637 1016.18,528.966C1020.88,528.295 1025.69,527.512 1030.61,526.617C1032.85,526.169 1035.08,525.61 1037.32,524.939C1039.56,524.268 1041.79,523.709 1044.03,523.261C1046.27,522.814 1055.22,521.024 1057.45,520.577C1062.82,519.682 1069.98,518.228 1078.93,516.214C1087.88,514.201 1094.37,511.628 1098.39,508.497C1110.03,504.917 1121.43,502.233 1132.62,500.443C1132.62,500.443 1134.41,499.548 1135.3,499.101C1136.2,499.101 1136.87,498.877 1137.32,498.43C1138.21,497.088 1139.33,496.416 1140.67,496.416L1146.04,494.403L1151.41,493.061L1151.41,492.39C1157.67,491.047 1163.71,489.146 1169.53,486.685C1175.35,484.224 1181.39,481.652 1187.65,478.967C1193.47,476.73 1199.17,474.605 1204.77,472.592C1210.36,470.578 1216.06,469.572 1221.88,469.572L1223.89,465.545C1229.26,460.176 1235.3,457.491 1242.01,457.491L1242.01,459.505C1243.8,461.294 1244.7,463.308 1244.7,465.545C1244.7,466.887 1244.25,467.558 1243.35,467.558C1239.33,471.585 1234.85,473.822 1229.93,474.269C1230.38,475.164 1230.71,475.835 1230.94,476.283C1231.16,476.73 1231.27,477.178 1231.27,477.625C1231.27,478.967 1230.6,479.638 1229.26,479.638C1227.47,480.981 1225.23,481.652 1222.55,481.652C1220.31,481.652 1219.19,480.309 1219.19,477.625L1221.21,476.283C1218.52,476.283 1216.73,475.835 1215.84,474.94C1212.71,482.994 1207.56,487.021 1200.4,487.021L1199.06,492.39L1191.68,490.376C1189.44,492.613 1187.2,493.732 1184.97,493.732C1184.07,495.969 1183.29,497.87 1182.62,499.436C1181.95,501.002 1180.27,501.785 1177.59,501.785C1178.03,501.338 1178.26,500.667 1178.26,499.772C1177.81,499.325 1177.59,498.877 1177.59,498.43C1174.45,502.009 1170.76,505.141 1166.51,507.825C1162.26,510.51 1157.23,511.852 1151.41,511.852L1150.74,507.154L1150.07,507.154C1150.52,507.602 1150.74,508.72 1150.74,510.51C1150.74,512.3 1149.96,513.642 1148.39,514.537C1146.83,515.432 1145.59,515.879 1144.7,515.879C1144.25,515.879 1144.03,515.655 1144.03,515.208L1142.69,515.208C1140.45,516.997 1138.44,517.892 1136.65,517.892C1135.75,517.892 1135.08,517.669 1134.63,517.221L1132.62,517.221C1130.38,519.011 1128.37,520.018 1126.58,520.241C1124.79,520.465 1122.11,520.8 1118.53,521.248C1112.71,522.143 1106.56,523.709 1100.07,525.946C1093.58,528.183 1087.43,530.42 1081.61,532.657C1081.17,533.104 1080.05,533.328 1078.26,533.328C1077.36,533.328 1076.92,533.552 1076.92,533.999C1063.05,541.158 1048.95,544.961 1034.64,545.408C1019.42,546.751 1004.66,548.764 990.342,551.448C988.999,551.896 987.657,552.231 986.315,552.455C984.973,552.679 983.407,552.791 981.617,552.791C979.827,552.791 978.261,552.902 976.919,553.126C975.577,553.35 974.235,553.685 972.892,554.133C970.208,554.58 966.852,556.705 962.826,560.509C958.799,564.312 954.996,568.45 951.417,572.924C947.837,577.398 945.153,580.978 943.363,583.662C941.573,585.452 939.56,587.353 937.323,589.367C935.086,591.38 932.849,593.282 930.612,595.071C926.138,598.203 922.111,602.23 918.532,607.151C917.637,608.046 916.518,609.165 915.176,610.507C913.834,611.849 912.715,613.415 911.82,615.205C909.583,619.232 906.899,621.469 903.767,621.916C904.662,624.153 904.214,625.719 902.425,626.614L901.082,627.956C897.056,631.983 895.042,636.681 895.042,642.05C893.7,643.392 892.582,645.182 891.687,647.419L891.016,650.103L889.002,652.788C886.765,655.92 884.64,659.611 882.627,663.861C880.613,668.112 878.488,672.698 876.251,677.619C874.014,682.541 871.777,687.127 869.54,691.377C867.303,695.628 865.066,699.543 862.828,703.122ZM842.024,884.325C838.892,884.325 835.424,883.654 831.621,882.311C827.818,880.969 824.798,879.179 822.561,876.942C820.324,874.258 817.08,869.448 812.83,862.513C808.579,855.578 806.454,850.321 806.454,846.742C806.454,838.241 806.902,829.964 807.796,821.91C808.691,813.857 810.034,805.58 811.823,797.079C814.508,794.842 816.074,792.157 816.521,789.025C816.968,785.894 817.416,782.762 817.863,779.63C821.443,776.05 823.456,771.576 823.903,766.207C824.351,760.838 827.035,758.154 831.957,758.154L833.299,756.812C833.747,756.364 833.523,755.246 832.628,753.456C831.733,751.219 831.062,749.317 830.615,747.751C830.167,746.186 830.615,744.284 831.957,742.047C832.404,741.152 832.852,740.145 833.299,739.027C833.747,737.908 834.194,737.125 834.641,736.678C835.089,736.231 835.76,734.665 836.655,731.98C837.997,727.059 839.227,722.696 840.346,718.893C841.464,715.09 843.813,711.175 847.393,707.149C849.63,705.359 851.643,705.247 853.433,706.813C855.222,708.379 855.894,710.281 855.446,712.518C855.446,715.202 854.775,717.887 853.433,720.571L858.802,720.571C857.012,729.072 854.999,737.573 852.762,746.074C850.525,754.575 848.288,763.075 846.05,771.576C840.681,788.131 837.997,805.132 837.997,822.582C837.997,838.241 841.129,852.782 847.393,866.204L856.788,860.835L860.144,854.795L860.144,862.178L861.486,865.533C862.381,863.296 863.723,861.283 865.513,859.493C867.303,857.704 869.987,856.809 873.566,856.809L874.238,861.507C874.238,862.849 874.014,863.744 873.566,864.191C870.882,870.007 866.631,874.817 860.815,878.62C854.999,882.423 848.735,884.325 842.024,884.325Z" style="fill:rgb(29,29,27);fill-rule:nonzero;"/>
                        <path d="M1079.6,762.181C1078.26,762.181 1077.14,761.733 1076.25,760.838C1075.8,761.286 1074.46,761.509 1072.22,761.509C1066.4,761.509 1060.59,757.483 1054.77,749.429C1048.95,741.376 1046.05,734.441 1046.05,728.625C1046.05,718.334 1048.73,707.596 1054.1,696.411L1068.86,665.539C1071.55,660.17 1072.89,656.591 1072.89,654.801C1072.89,654.801 1071.77,653.011 1069.53,649.432C1069.53,649.432 1062.38,642.274 1061.48,641.379C1058.8,638.247 1056.11,634.667 1053.43,630.641C1050.74,626.614 1048.95,621.916 1048.06,616.547C1047.16,617.442 1045.15,620.798 1042.02,626.614C1038.89,632.43 1035.75,638.023 1032.62,643.392C1029.49,648.761 1027.03,651.446 1025.24,651.446C1024.35,651.446 1023.67,651.222 1023.23,650.774C1022.78,650.327 1022.11,650.103 1021.21,650.103C1020.32,650.103 1019.2,651.893 1017.86,655.472C1016.07,658.157 1013.61,662.072 1010.48,667.217C1007.34,672.362 1004.21,677.172 1001.08,681.646C997.948,686.12 995.039,688.357 992.355,688.357C990.565,688.357 989.67,687.462 989.67,685.673C989.67,684.33 990.565,681.758 992.355,677.955C994.145,674.152 996.27,670.349 998.731,666.546C1001.19,662.743 1002.87,660.394 1003.76,659.499C1009.13,651.893 1013.61,645.182 1017.19,639.365C1020.77,633.549 1024.12,627.509 1027.25,621.245C1029.94,615.429 1032.73,609.5 1035.64,603.46C1038.55,597.42 1042.02,590.597 1046.05,582.991C1046.94,576.727 1048.28,570.24 1050.07,563.529C1056.78,543.395 1064.72,525.834 1073.9,510.846C1083.07,495.857 1094.59,480.533 1108.46,464.874C1111.59,461.742 1115.28,457.827 1119.53,453.129C1123.78,448.431 1128.14,444.069 1132.62,440.042C1137.09,436.015 1140.9,434.002 1144.03,434.002C1146.71,434.002 1149.85,435.121 1153.42,437.358C1155.21,438.253 1156.78,439.147 1158.12,440.042C1159.46,440.937 1160.81,441.832 1162.15,442.727L1175.57,450.109C1180.49,452.793 1182.95,457.044 1182.95,462.86C1182.95,465.097 1182.73,466.44 1182.28,466.887C1180.94,471.809 1176.58,477.066 1169.2,482.658C1161.81,488.251 1153.76,493.956 1145.04,499.772C1136.31,505.588 1129.26,511.181 1123.89,516.55C1115.84,523.709 1108.91,531.762 1103.09,540.71C1097.27,549.659 1091.9,559.278 1086.98,569.569C1086.54,571.358 1085.98,572.924 1085.31,574.267C1084.63,575.609 1084.08,577.175 1083.63,578.964C1083.18,582.096 1082.06,585.676 1080.27,589.702C1079.82,590.597 1079.38,591.604 1078.93,592.722C1078.48,593.841 1078.26,595.071 1078.26,596.414C1078.26,598.651 1078.48,600.217 1078.93,601.111C1079.38,602.454 1079.6,604.243 1079.6,606.48C1079.6,609.165 1079.38,610.954 1078.93,611.849C1078.48,613.192 1078.26,615.205 1078.26,617.889C1078.26,622.811 1080.72,627.397 1085.64,631.647C1090.56,635.898 1095.37,640.484 1100.07,645.405C1104.77,650.327 1107.12,655.92 1107.12,662.183C1107.12,667.552 1105.33,674.04 1101.75,681.646C1098.17,689.252 1094.14,696.858 1089.67,704.464C1085.19,712.07 1081.61,719.005 1078.93,725.269L1075.57,733.322L1074.23,738.02C1074.23,738.915 1074.46,739.362 1074.9,739.362L1076.25,741.376C1080.27,741.376 1085.87,738.468 1093.02,732.651C1100.18,726.835 1107.34,720.459 1114.5,713.524C1121.66,706.589 1126.58,701.78 1129.26,699.095C1134.63,693.279 1139.55,687.127 1144.03,680.639C1148.5,674.152 1152.75,667.552 1156.78,660.841C1157.67,658.604 1159.13,656.032 1161.14,653.123C1163.15,650.215 1165.28,648.761 1167.52,648.761C1170.2,648.761 1171.54,650.327 1171.54,653.459C1171.54,656.143 1169.2,661.4 1164.5,669.23C1159.8,677.06 1154.77,684.778 1149.4,692.384C1144.03,699.99 1140.23,704.912 1137.99,707.149L1137.32,708.491L1137.32,709.162C1135.98,712.294 1133.96,714.307 1131.28,715.202C1130.83,715.649 1130.16,716.768 1129.26,718.558C1128.37,720.347 1127.7,721.466 1127.25,721.913C1127.25,722.808 1126.58,723.703 1125.24,724.598L1122.55,725.269C1122.11,727.059 1120.76,728.625 1118.53,729.967L1114.5,733.993C1114.05,733.993 1113.83,734.217 1113.83,734.665C1113.83,735.112 1113.6,735.336 1113.16,735.336C1112.71,738.02 1110.92,739.362 1107.79,739.362C1106.89,741.152 1105.66,743.389 1104.1,746.074C1102.53,748.758 1100.63,750.1 1098.39,750.1C1096.15,753.232 1093.25,754.798 1089.67,754.798C1089.22,755.246 1089,755.917 1089,756.812C1089,757.259 1088.77,757.706 1088.33,758.154C1087.43,760.391 1085.42,761.509 1082.29,761.509C1081.84,761.957 1080.94,762.181 1079.6,762.181Z" style="fill:rgb(29,29,27);fill-rule:nonzero;"/>
                        <path d="M1281.61,498.43C1274.9,498.43 1269.64,495.41 1265.84,489.37C1262.03,483.33 1260.13,477.401 1260.13,471.585C1273.56,461.742 1287.09,452.011 1300.74,442.391C1314.38,432.772 1328.36,425.277 1342.68,419.909L1350.73,413.868L1351.4,416.553C1351.4,419.237 1348.5,422.929 1342.68,427.626C1336.86,432.324 1332.61,435.121 1329.93,436.015C1329.48,436.91 1327.25,440.601 1323.22,447.089C1319.19,453.576 1314.38,460.735 1308.79,468.565C1303.2,476.395 1297.83,483.33 1292.68,489.37C1287.54,495.41 1283.85,498.43 1281.61,498.43ZM1150.07,807.146C1143.81,807.146 1138.88,804.797 1135.3,800.099C1131.73,795.401 1129.26,789.697 1127.92,782.985C1126.58,776.274 1125.91,770.458 1125.91,765.536C1125.91,748.087 1128.93,730.526 1134.97,712.853C1141.01,695.18 1148.28,678.961 1156.78,664.197C1159.02,660.17 1161.48,656.591 1164.16,653.459L1170.87,643.392C1172.22,641.155 1173.56,638.47 1174.9,635.339C1175.8,632.207 1177.14,629.746 1178.93,627.956C1181.16,623.482 1183.74,618.784 1186.64,613.863C1189.55,608.941 1192.57,604.02 1195.7,599.098C1201.97,588.807 1205.1,578.293 1205.1,567.555C1205.55,568.003 1206.22,568.226 1207.11,568.226L1207.79,568.226C1209.58,568.226 1210.92,568.003 1211.81,567.555L1214.5,567.555C1218.97,567.555 1224.23,569.569 1230.27,573.595C1236.31,577.622 1241.79,582.432 1246.71,588.025C1251.63,593.617 1254.09,598.651 1254.09,603.125C1254.09,606.257 1252.41,609.836 1249.06,613.863C1245.7,617.889 1242.01,621.916 1237.99,625.943L1231.94,631.983L1225.9,638.694C1222.77,642.274 1219.64,646.188 1216.51,650.439C1213.38,654.689 1210.47,659.275 1207.79,664.197C1206.89,665.092 1206.44,666.21 1206.44,667.552C1206.44,669.342 1206.22,670.461 1205.77,670.908C1205.77,673.593 1203.54,675.83 1199.06,677.619L1199.06,674.264C1187.88,685.449 1178.59,699.543 1171.21,716.544C1163.83,733.546 1160.13,749.653 1160.13,764.865L1160.13,770.905C1160.13,774.037 1160.58,776.05 1161.48,776.945C1161.92,778.735 1162.82,779.63 1164.16,779.63L1165.5,779.63C1165.5,780.077 1165.73,780.301 1166.17,780.301C1166.17,780.748 1166.4,780.972 1166.85,780.972L1166.85,781.643C1166.85,782.538 1166.17,783.656 1164.83,784.999L1162.82,787.012C1162.82,787.46 1164.39,788.019 1167.52,788.69C1170.65,789.361 1172.44,789.697 1172.89,789.697C1174.68,789.697 1177.59,788.019 1181.61,784.663C1185.64,781.308 1189.89,777.616 1194.36,773.59C1198.84,769.563 1202.42,766.655 1205.1,764.865C1208.23,762.181 1211.14,760.391 1213.83,759.496C1217.4,755.022 1220.98,750.548 1224.56,746.074C1228.14,741.6 1231.5,737.125 1234.63,732.651C1238.21,728.177 1241.68,723.927 1245.03,719.9C1248.39,715.873 1251.86,711.623 1255.43,707.149L1255.43,705.806C1255.43,704.912 1256.66,702.563 1259.13,698.76C1261.59,694.957 1264.27,691.265 1267.18,687.686C1270.09,684.107 1271.99,682.317 1272.88,682.317C1273.33,682.765 1273.56,683.883 1273.56,685.673C1273.56,687.462 1273.33,688.581 1272.88,689.028C1270.2,694.845 1266.17,703.01 1260.8,713.524C1255.43,724.039 1249.95,733.77 1244.36,742.718C1238.77,751.666 1233.51,756.812 1228.59,758.154C1227.69,760.391 1226.35,763.075 1224.56,766.207C1222.77,769.339 1220.54,771.353 1217.85,772.247C1216.51,774.484 1214.72,775.603 1212.48,775.603C1211.14,779.182 1209.58,781.196 1207.79,781.643C1206.89,782.538 1206,783.321 1205.1,783.992C1204.21,784.663 1203.54,785.222 1203.09,785.67C1202.64,787.46 1201.07,789.137 1198.39,790.703C1195.7,792.269 1193.47,793.5 1191.68,794.394C1189.44,796.631 1186.53,799.092 1182.95,801.777C1179.37,804.461 1175.8,805.803 1172.22,805.803L1170.2,805.803L1168.19,805.132L1166.85,805.132C1166.4,804.685 1165.73,804.461 1164.83,804.461C1163.49,804.461 1161.03,804.909 1157.45,805.803C1153.87,806.698 1151.41,807.146 1150.07,807.146Z" style="fill:rgb(29,29,27);fill-rule:nonzero;"/>
                        <path d="M1268.19,807.146C1265.05,807.146 1260.91,805.244 1255.77,801.441C1250.62,797.638 1247.16,794.618 1245.37,792.381C1243.13,788.802 1242.01,784.328 1242.01,778.959C1242.01,777.169 1242.12,775.379 1242.35,773.59C1242.57,771.8 1242.91,770.01 1243.35,768.221C1244.25,766.431 1244.92,764.753 1245.37,763.187C1245.82,761.621 1246.26,759.944 1246.71,758.154C1249.84,745.179 1253.42,731.868 1257.45,718.222C1261.48,704.576 1266.17,691.265 1271.54,678.29C1273.78,672.474 1276.35,666.769 1279.26,661.177C1282.17,655.584 1285.19,649.88 1288.32,644.063C1291.45,638.694 1294.47,633.325 1297.38,627.956C1300.29,622.587 1303.31,616.995 1306.44,611.178C1309.57,605.809 1312.7,600.888 1315.84,596.414C1317.62,594.176 1319.3,591.828 1320.87,589.367C1322.43,586.906 1323.89,584.557 1325.23,582.32C1325.23,581.425 1325.68,580.978 1326.57,580.978L1325.9,580.978C1325.9,575.609 1327.02,571.358 1329.26,568.226C1330.15,566.884 1331.27,565.318 1332.61,563.529C1333.96,561.739 1335.3,559.726 1336.64,557.488C1337.98,555.699 1339.21,554.021 1340.33,552.455C1341.45,550.889 1342.46,549.211 1343.35,547.422C1344.69,545.632 1346.04,543.842 1347.38,542.053C1348.72,540.263 1350.29,538.473 1352.08,536.684L1360.13,525.946C1365.05,519.682 1369.08,512.971 1372.21,505.812C1374.89,499.101 1378.25,492.166 1382.28,485.007C1390.33,471.585 1399.17,458.498 1408.79,445.747C1418.4,432.995 1429.03,421.027 1440.66,409.842L1451.4,399.775L1460.8,389.708C1462.59,387.918 1464.15,386.017 1465.5,384.004C1466.84,381.99 1468.18,380.089 1469.52,378.299C1471.31,374.272 1473.77,370.469 1476.9,366.89C1478.25,365.1 1479.7,363.422 1481.27,361.856C1482.83,360.291 1484.51,358.613 1486.3,356.823C1488.09,355.033 1489.66,353.356 1491,351.79C1492.34,350.224 1493.68,348.546 1495.03,346.756C1499.05,342.73 1502.18,338.703 1504.42,334.676C1506.66,330.649 1509.79,326.623 1513.82,322.596C1516.95,319.017 1520.3,315.325 1523.88,311.522C1527.46,307.719 1531.04,304.252 1534.62,301.12C1538.2,297.988 1541.78,294.744 1545.36,291.389C1548.94,288.033 1552.52,284.789 1556.1,281.657C1559.23,278.526 1562.36,275.617 1565.49,272.933C1568.62,270.248 1571.76,267.34 1574.89,264.208C1581.15,257.944 1587.86,252.576 1595.02,248.101C1598.15,246.312 1601.4,244.634 1604.75,243.068C1608.11,241.502 1611.35,240.272 1614.49,239.377C1621.64,237.14 1628.13,234.455 1633.95,231.323C1637.53,231.771 1642.22,233.56 1648.04,236.692C1653.86,239.824 1659.11,243.404 1663.81,247.43C1668.51,251.457 1670.86,255.484 1670.86,259.51C1670.86,261.748 1670.41,263.313 1669.52,264.208C1669.07,265.551 1669.07,267.564 1669.52,270.248C1669.07,271.591 1665.04,274.723 1657.44,279.644L1635.29,294.409C1626.79,299.778 1618.85,305.035 1611.47,310.18C1604.08,315.325 1599.27,319.24 1597.04,321.925C1593.46,326.846 1589.99,331.432 1586.63,335.683C1583.28,339.933 1579.81,344.072 1576.23,348.098L1576.23,350.783C1576.23,352.573 1575.78,353.915 1574.89,354.81L1570.86,357.494C1569.52,357.942 1568.85,358.836 1568.85,360.179C1568.85,363.758 1566.84,368.232 1562.81,373.601C1558.78,378.97 1554.31,381.655 1549.39,381.655L1549.39,371.588L1551.4,370.246C1552.74,369.351 1553.41,368.008 1553.41,366.219L1558.11,367.561L1558.11,366.89C1557.22,366.89 1556.1,366.554 1554.76,365.883C1553.41,365.212 1552.74,363.758 1552.74,361.521C1554.53,359.731 1558,355.145 1563.14,347.763C1568.29,340.381 1573.43,332.775 1578.58,324.945C1583.73,317.115 1586.75,311.858 1587.64,309.173L1587.64,307.831C1585.85,307.831 1582.61,310.739 1577.91,316.556C1573.21,322.372 1568.74,328.189 1564.49,334.005C1560.24,339.821 1557.44,342.73 1556.1,342.73L1555.43,342.73C1552.74,344.967 1549.94,347.204 1547.04,349.441C1544.13,351.678 1541.11,353.915 1537.98,356.152C1536.19,357.494 1533.39,360.179 1529.59,364.205C1525.79,368.232 1521.65,372.706 1517.17,377.628C1512.7,382.102 1508.67,386.8 1505.09,391.721C1503.3,393.958 1501.51,395.972 1499.72,397.762C1497.93,399.551 1496.59,400.893 1495.7,401.788C1489.43,408.499 1483.28,415.211 1477.24,421.922C1471.2,428.633 1465.05,435.344 1458.79,442.056L1421.2,483.665C1418.96,486.35 1416.39,489.258 1413.48,492.39C1410.58,495.522 1407.33,498.877 1403.75,502.456C1400.62,505.588 1397.94,508.944 1395.7,512.523L1388.32,521.248L1368.18,551.448C1367.74,556.817 1364.83,562.186 1359.46,567.555C1354.09,573.372 1350.29,578.741 1348.05,583.662L1348.05,584.333C1334.63,605.809 1322.99,626.055 1313.15,645.07C1303.31,664.085 1294.36,685.896 1286.31,710.504C1281.83,723.479 1277.36,736.566 1272.88,749.765C1268.41,762.964 1265.95,776.722 1265.5,791.039C1267.74,787.46 1270.76,782.538 1274.56,776.274C1278.37,770.01 1282.28,763.299 1286.31,756.14C1288.54,752.561 1290.89,748.982 1293.35,745.403C1295.81,741.823 1298.16,738.468 1300.4,735.336C1305.32,729.072 1308.9,725.94 1311.14,725.94C1312.48,725.94 1313.15,726.611 1313.15,727.953C1313.15,730.19 1312.26,732.875 1310.47,736.007C1308.68,739.139 1307.34,741.823 1306.44,744.06C1303.31,748.534 1300.62,754.127 1298.39,760.838C1296.6,766.207 1294.47,772.583 1292.01,779.965C1289.55,787.348 1286.42,793.723 1282.62,799.092C1278.81,804.461 1274,807.146 1268.19,807.146ZM1439.32,834.662C1431.72,834.662 1425.45,832.313 1420.53,827.615C1415.61,822.917 1410.91,818.107 1406.44,813.186C1404.65,811.396 1403.08,810.278 1401.74,809.83C1399.95,808.488 1399.06,806.475 1399.06,803.79L1401.74,801.777L1401.74,801.106C1395.48,793.052 1391.45,783.433 1389.66,772.247C1388.76,766.431 1387.65,761.062 1386.3,756.14C1384.96,751.219 1383.62,746.521 1382.28,742.047L1383.62,741.376C1381.83,737.796 1381.16,733.77 1381.61,729.296C1382.05,727.506 1382.28,725.045 1382.28,721.913L1378.92,721.913L1378.92,720.571L1377.58,720.571C1378.03,718.781 1378.36,717.104 1378.59,715.538C1378.81,713.972 1378.92,712.741 1378.92,711.846C1378.92,706.925 1378.59,701.891 1377.91,696.746C1377.24,691.601 1376.46,686.12 1375.57,680.304C1373.33,682.541 1370.64,684.89 1367.51,687.351C1364.38,689.811 1361.25,691.042 1358.12,691.042C1356.77,691.042 1354.31,690.371 1350.73,689.028C1351.18,688.133 1351.4,686.344 1351.4,683.659L1351.4,682.988C1348.27,686.568 1345.14,690.035 1342.01,693.391C1338.88,696.746 1335.52,700.214 1331.94,703.793C1331.94,706.03 1330.6,707.149 1327.92,707.149L1326.57,708.491C1325.23,708.491 1324.34,707.596 1323.89,705.806C1322.99,704.464 1321.88,703.122 1320.53,701.78C1323.66,697.305 1326.57,693.95 1329.26,691.713C1331.05,690.371 1332.61,688.916 1333.96,687.351C1335.3,685.785 1336.64,684.107 1337.98,682.317L1344.69,674.264C1345.59,672.921 1346.6,671.579 1347.71,670.237C1348.83,668.895 1349.84,667.776 1350.73,666.881C1353.42,663.749 1355.88,660.17 1358.12,656.143C1360.35,652.564 1363.04,649.208 1366.17,646.077L1366.17,644.734C1366.17,642.497 1366.84,640.484 1368.18,638.694C1369.08,636.905 1369.3,634.891 1368.85,632.654C1372.43,630.417 1374.67,629.187 1375.57,628.963C1376.46,628.739 1378.47,628.404 1381.61,627.956C1382.5,626.167 1383.51,624.377 1384.63,622.587C1385.74,620.798 1386.53,619.008 1386.98,617.218C1388.32,613.639 1390.11,610.06 1392.34,606.48L1397.71,605.809L1399.73,597.756L1401.74,596.414L1407.78,587.018C1408.67,586.57 1409.79,586.123 1411.13,585.676C1412.48,585.228 1413.82,584.781 1415.16,584.333C1417.85,583.886 1420.31,582.767 1422.54,580.978C1425.68,578.741 1427.91,575.385 1429.26,570.911L1429.93,568.898C1429.48,568.898 1428.81,568.003 1427.91,566.213C1431.49,564.871 1434.85,563.193 1437.98,561.18C1441.11,559.166 1443.12,556.817 1444.02,554.133L1446.03,552.791L1446.03,550.777L1449.39,552.119L1458.79,545.408L1458.79,542.724L1465.5,540.71L1467.51,538.026C1467.51,536.684 1468.18,536.013 1469.52,536.013C1470.42,536.013 1471.31,536.236 1472.21,536.684C1474,537.579 1475.12,538.25 1475.56,538.697C1484.96,538.697 1492.45,542.724 1498.05,550.777C1503.64,558.831 1506.43,567.332 1506.43,576.28C1506.43,577.622 1506.21,578.964 1505.76,580.307C1505.32,581.201 1505.09,582.208 1505.09,583.327C1505.09,584.445 1504.87,585.452 1504.42,586.347L1502.41,590.373L1502.41,591.716C1501.51,591.716 1501.51,592.163 1502.41,593.058C1496.14,597.085 1490.55,601.447 1485.63,606.145C1480.71,610.843 1475.79,615.652 1470.87,620.574C1461.92,629.075 1452.74,637.464 1443.35,645.741C1433.95,654.018 1424.33,661.96 1414.49,669.566C1414.94,673.593 1415.27,677.731 1415.5,681.982C1415.72,686.232 1415.83,690.371 1415.83,694.397L1415.16,718.558C1415.16,719.9 1415.38,721.018 1415.83,721.913C1415.83,723.256 1415.38,724.374 1414.49,725.269C1414.94,725.716 1415.16,727.506 1415.16,730.638L1415.83,730.638L1419.19,729.967C1419.19,736.678 1419.3,742.494 1419.52,747.416C1419.75,752.337 1421.42,757.93 1424.56,764.194C1424.56,765.089 1424.78,765.76 1425.23,766.207L1425.23,768.221L1424.56,768.892L1424.56,770.905C1423.21,770.905 1422.32,770.681 1421.87,770.234C1420.98,770.234 1420.08,770.681 1419.19,771.576L1419.19,774.932C1419.64,775.379 1419.86,776.05 1419.86,776.945L1419.86,777.616L1423.89,774.261C1425.23,784.551 1428.36,793.723 1433.28,801.777C1438.2,809.83 1445.59,813.857 1455.43,813.857C1459.01,813.857 1464.04,810.837 1470.53,804.797C1477.02,798.757 1480.26,792.605 1480.26,786.341C1481.15,788.578 1481.71,790.48 1481.94,792.046C1482.16,793.611 1482.5,794.842 1482.94,795.737C1483.39,796.184 1483.62,797.079 1483.62,798.421C1483.62,800.658 1482.94,802.895 1481.6,805.132C1479.37,807.369 1477.8,809.159 1476.9,810.501C1472.43,816.318 1467.06,821.799 1460.8,826.944C1454.53,832.089 1447.38,834.662 1439.32,834.662ZM1414.49,653.459L1427.91,640.036L1427.91,639.365L1439.32,629.97L1438.65,627.956L1441.34,626.614C1448.94,621.245 1455.88,615.876 1462.14,610.507C1468.4,605.138 1472.65,599.993 1474.89,595.071L1474.89,594.4L1476.23,593.058L1476.57,593.058C1476.79,593.058 1477.13,592.834 1477.58,592.387L1479.59,592.387L1478.92,591.716L1478.92,591.045L1480.26,589.031C1480.71,588.136 1481.38,586.906 1482.27,585.34C1483.17,583.774 1484.29,582.096 1485.63,580.307C1486.52,578.964 1487.31,577.622 1487.98,576.28C1488.65,574.938 1489.21,574.043 1489.66,573.595L1486.3,574.938L1480.93,576.28L1481.6,577.622L1480.26,578.293C1474.44,578.293 1471.09,581.425 1470.19,587.689L1468.18,587.018C1468.18,587.465 1467.73,588.136 1466.84,589.031C1465.5,589.031 1464.38,589.479 1463.48,590.373L1462.14,591.045C1463.04,591.492 1463.59,592.051 1463.82,592.722C1464.04,593.393 1464.38,593.953 1464.83,594.4L1461.47,594.4C1458.79,595.295 1455.88,596.749 1452.74,598.762C1449.61,600.776 1446.93,602.677 1444.69,604.467C1444.24,604.914 1443.46,605.697 1442.34,606.816C1441.22,607.934 1441.78,609.612 1444.02,611.849L1437.98,610.507L1437.98,611.849C1437.98,613.192 1437.31,613.863 1435.97,613.863L1434.62,613.863L1435.97,614.534L1415.16,634.667C1415.61,635.115 1415.83,635.562 1415.83,636.01L1415.83,636.681L1415.16,636.681L1415.83,637.352L1414.49,638.023L1414.49,653.459ZM1316.51,726.611C1315.16,726.611 1314.27,725.716 1313.82,723.927C1313.38,723.032 1312.93,722.473 1312.48,722.249C1312.03,722.025 1311.59,721.69 1311.14,721.242C1310.24,721.242 1309.8,720.571 1309.8,719.229C1309.8,717.439 1311.03,715.426 1313.49,713.189C1315.95,710.952 1318.07,709.833 1319.86,709.833C1321.65,710.281 1322.55,711.399 1322.55,713.189C1322.55,714.084 1321.76,716.544 1320.2,720.571C1318.63,724.598 1317.4,726.611 1316.51,726.611Z" style="fill:rgb(29,29,27);fill-rule:nonzero;"/>
                        <path d="M1676.9,824.595C1672.42,819.226 1667.84,815.087 1663.14,812.179C1658.44,809.271 1654.42,805.915 1651.06,802.112C1647.7,798.309 1646.03,793.052 1646.03,786.341L1647.37,786.341L1645.36,776.274L1643.34,778.288L1642,780.301C1642.45,778.511 1642.9,776.833 1643.34,775.267C1643.79,773.702 1644.24,772.247 1644.68,770.905C1645.13,768.668 1645.47,766.543 1645.69,764.53C1645.92,762.516 1646.03,760.391 1646.03,758.154C1646.03,752.337 1646.48,746.633 1647.37,741.04C1648.27,735.448 1649.38,729.967 1650.73,724.598C1652.07,719.229 1653.3,713.748 1654.42,708.155C1655.54,702.563 1656.54,696.634 1657.44,690.371L1658.78,690.371L1666.16,672.921L1665.49,669.566C1664.6,671.355 1663.92,672.474 1663.48,672.921C1663.03,673.816 1662.36,674.711 1661.46,675.606C1656.54,682.765 1650.5,691.377 1643.34,701.444C1636.18,711.511 1629.03,720.907 1621.87,729.631C1614.71,738.356 1608.22,744.508 1602.4,748.087C1598.83,750.324 1596.36,752.002 1595.02,753.12C1593.68,754.239 1592.11,757.035 1590.32,761.509C1585.85,762.404 1581.49,765.312 1577.24,770.234C1572.99,775.156 1568.85,779.853 1564.82,784.328C1560.8,788.802 1556.32,791.263 1551.4,791.71L1550.73,795.066C1548.04,797.75 1544.46,799.652 1539.99,800.77C1535.52,801.889 1531.49,802.672 1527.91,803.119C1518.07,799.54 1508.45,794.618 1499.05,788.354C1489.66,782.091 1484.96,773.366 1484.96,762.181C1484.96,757.706 1485.63,753.903 1486.97,750.772L1487.64,750.772L1487.64,747.416C1486.75,746.074 1486.52,744.284 1486.97,742.047C1487.42,739.81 1488.09,738.691 1488.99,738.691L1489.66,739.362C1490.55,738.02 1491.11,735.783 1491.33,732.651C1491.56,729.519 1491.67,727.506 1491.67,726.611L1493.01,725.269C1493.01,722.137 1494.58,718.781 1497.71,715.202C1500.84,711.623 1503.86,708.267 1506.77,705.135C1509.68,702.003 1511.13,699.766 1511.13,698.424C1511.58,697.977 1511.8,697.305 1511.8,696.411C1511.8,694.174 1511.58,692.384 1511.13,691.042C1510.24,689.252 1510.01,687.686 1510.46,686.344L1510.46,683.659L1513.14,683.659L1515.16,680.304L1515.16,678.961C1513.82,678.067 1513.14,677.396 1513.14,676.948L1513.14,675.606C1513.14,674.264 1513.59,673.145 1514.49,672.25L1516.5,670.237L1516.5,669.566C1516.5,669.118 1516.73,668.671 1517.17,668.224L1517.17,666.881L1520.53,663.526C1522.32,661.736 1523.66,660.618 1524.55,660.17C1528.13,655.249 1531.04,650.774 1533.28,646.748L1535.96,646.748L1536.63,647.419C1536.19,646.524 1535.85,645.853 1535.63,645.405C1535.4,644.958 1535.29,644.511 1535.29,644.063C1535.29,640.484 1538.31,635.339 1544.35,628.627C1550.39,621.916 1557.66,614.646 1566.16,606.816C1574.66,598.986 1582.94,591.604 1591,584.669C1599.05,577.734 1605.31,572.253 1609.79,568.226L1609.79,564.871L1611.13,564.871C1612.92,563.976 1614.82,562.634 1616.83,560.844C1618.85,559.054 1620.97,557.265 1623.21,555.475C1627.68,551.001 1631.49,548.54 1634.62,548.093L1635.96,544.737L1639.99,544.066C1640.43,543.619 1642.22,541.829 1642.67,541.382C1643.57,540.934 1644.24,540.71 1644.68,540.71C1645.13,540.71 1645.58,540.487 1646.03,540.039L1646.7,539.368L1648.04,538.697L1648.04,537.69C1648.04,537.467 1648.27,537.131 1648.71,536.684L1660.79,531.986L1662.13,532.657L1671.53,528.63L1673.54,526.617L1674.22,526.617L1682.94,525.946L1687.64,523.261L1688.98,521.919L1688.98,522.59L1689.65,521.919L1690.99,523.261C1695.02,521.472 1699.05,520.577 1703.07,520.577C1707.1,520.577 1712.47,521.248 1719.18,522.59C1725.89,523.932 1732.15,526.058 1737.97,528.966C1743.79,531.874 1747.14,535.789 1748.04,540.71L1748.04,542.053L1733.94,550.106C1734.84,547.869 1735.51,546.527 1735.96,546.079L1735.96,545.408C1735.96,544.513 1735.06,544.066 1733.27,544.066L1729.25,544.066C1719.85,544.066 1711.24,546.751 1703.41,552.119C1695.58,557.488 1688.08,562.857 1680.93,568.226C1676.9,569.121 1672.65,571.806 1668.17,576.28C1663.7,580.754 1659.67,584.11 1656.09,586.347C1638.64,599.769 1622.87,613.08 1608.78,626.278C1594.69,639.477 1581.38,655.249 1568.85,673.593C1566.61,677.172 1563.7,681.758 1560.12,687.351C1556.55,692.943 1553.41,696.858 1550.73,699.095C1548.49,703.122 1546.25,707.149 1544.02,711.175C1541.78,715.202 1539.77,719.453 1537.98,723.927C1536.19,728.401 1534.17,732.651 1531.94,736.678C1529.7,740.705 1527.46,744.508 1525.23,748.087C1525.23,753.456 1524.55,758.601 1523.21,763.523C1522.32,766.207 1521.87,768.444 1521.87,770.234C1521.42,771.576 1521.2,772.919 1521.2,774.261C1521.2,775.603 1520.98,776.722 1520.53,777.616L1523.21,783.656C1528.58,781.419 1535.07,778.511 1542.67,774.932C1550.28,771.353 1554.08,767.326 1554.08,762.852C1556.77,761.957 1558.11,761.509 1558.11,761.509L1559.45,761.509L1559.45,760.167C1560.35,759.272 1561.02,758.825 1561.47,758.825L1563.48,758.825L1565.49,756.14L1565.49,752.785L1568.18,755.469L1576.9,746.745C1576.9,744.508 1578.47,743.165 1581.6,742.718C1589.21,736.454 1595.92,729.072 1601.73,720.571C1604.87,716.097 1608,711.846 1611.13,707.82C1614.26,703.793 1617.62,699.99 1621.2,696.411L1622.54,696.411L1631.26,685.673L1630.59,682.988L1639.99,670.908L1641.33,670.908C1642.22,668.224 1643.57,665.539 1645.36,662.855L1647.37,664.197L1652.74,656.814L1652.07,656.143C1654.31,652.564 1656.77,648.985 1659.45,645.405C1662.13,641.826 1664.82,638.47 1667.5,635.339C1670.19,631.759 1672.76,628.18 1675.22,624.601C1677.68,621.021 1680.03,617.442 1682.27,613.863C1682.27,610.731 1683.39,607.823 1685.62,605.138C1687.86,602.454 1690.77,601.111 1694.35,601.111L1699.05,602.454C1700.84,599.322 1701.73,594.4 1701.73,587.689C1703.97,588.136 1705.76,587.689 1707.1,586.347C1707.1,586.347 1708.44,585.899 1711.13,585.004L1711.13,586.347L1716.5,588.36C1718.29,587.465 1719.63,587.018 1720.52,587.018C1724.1,587.018 1727.68,588.025 1731.26,590.038C1734.84,592.051 1737.97,594.176 1740.66,596.414C1740.66,597.308 1740.88,597.532 1741.33,597.085C1741.33,596.637 1741.55,596.414 1742,596.414L1745.35,596.414C1751.17,596.414 1754.08,598.874 1754.08,603.796L1754.08,605.809C1751.84,608.941 1749.72,612.073 1747.7,615.205C1745.69,618.337 1743.79,621.469 1742,624.601C1738.42,630.864 1733.5,636.457 1727.23,641.379L1727.23,642.721L1716.5,658.157L1717.84,660.841L1695.02,689.028L1693.01,689.699C1692.11,692.831 1691.11,695.851 1689.99,698.76C1688.87,701.668 1687.64,704.688 1686.3,707.82L1680.26,709.833C1681.15,710.728 1681.6,711.846 1681.6,713.189C1681.6,714.978 1681.82,716.097 1682.27,716.544C1678.69,723.256 1675.67,729.967 1673.21,736.678C1670.75,743.389 1669.96,750.548 1670.86,758.154C1669.52,759.049 1668.73,760.279 1668.51,761.845C1668.29,763.411 1668.17,764.865 1668.17,766.207C1668.17,768.444 1668.29,770.57 1668.51,772.583C1668.73,774.596 1669.07,776.722 1669.52,778.959C1669.96,781.196 1671.75,790.144 1672.2,792.381L1679.58,788.354L1681.6,788.354L1682.27,787.683L1683.61,785.67C1683.61,784.328 1684.28,782.762 1685.62,780.972L1686.97,786.341L1693.01,783.656L1693.01,786.341L1693.68,786.341C1695.47,786.341 1696.81,784.999 1697.7,782.314C1698.6,781.419 1699.72,780.413 1701.06,779.294C1702.4,778.176 1703.97,777.616 1705.76,777.616L1706.43,776.274L1706.43,774.261C1706.43,772.024 1707.99,770.234 1711.13,768.892C1712.92,768.444 1714.37,767.885 1715.49,767.214C1716.61,766.543 1717.61,766.207 1718.51,766.207L1719.18,766.207L1736.63,748.758L1737.3,748.758C1738.19,747.416 1740.1,745.514 1743.01,743.054C1745.91,740.593 1748.49,738.915 1750.72,738.02L1750.72,733.322L1755.42,731.98L1756.09,731.98L1771.53,710.504C1771.53,710.952 1771.98,711.175 1772.87,711.175C1773.76,711.175 1774.43,711.399 1774.88,711.846C1775.33,711.846 1776.11,711.063 1777.23,709.498C1778.35,707.932 1778.91,706.701 1778.91,705.806C1779.36,705.359 1779.92,704.8 1780.59,704.129C1781.26,703.457 1782.49,702.898 1784.28,702.451C1785.62,701.556 1786.74,700.997 1787.63,700.773C1788.53,700.549 1789.2,700.214 1789.65,699.766C1784.73,709.162 1780.36,717.663 1776.56,725.269C1772.76,732.875 1769.07,740.481 1765.49,748.087C1761.91,755.693 1757.88,762.964 1753.41,769.898C1748.93,776.833 1743.34,783.656 1736.63,790.368L1733.94,787.683L1738.64,781.643L1737.97,777.616L1736.63,778.288L1736.63,780.972L1731.93,785.67C1731.48,791.486 1729.47,795.737 1725.89,798.421L1723.21,798.421L1721.86,797.75L1721.86,801.106L1717.84,805.803L1715.82,805.132L1707.77,816.541L1707.77,814.528C1707.77,814.528 1701.95,817.436 1701.06,817.884C1698.38,818.779 1696.81,820.121 1696.36,821.91L1676.9,824.595ZM1744.01,771.576C1744.01,770.234 1744.24,769.339 1744.68,768.892L1746.03,766.878L1743.34,767.55L1744.01,767.55L1742,770.905L1742.67,770.234L1744.01,771.576Z" style="fill:rgb(29,29,27);fill-rule:nonzero;"/>
                    </g>
                    <g transform="matrix(0.155203,0,0,0.155203,2516.81,1756.15)">
                        <path d="M564.85,504.47C597.959,504.47 624.692,517.221 645.049,542.724C665.407,568.226 675.586,603.125 675.586,647.419C675.586,691.713 664.4,729.967 642.029,762.181C619.659,794.394 591.248,810.501 556.797,810.501C519.214,810.501 488.566,794.394 464.853,762.181C441.14,729.967 429.284,690.594 429.284,644.063C429.284,597.532 441.588,562.634 466.196,539.368C490.803,516.103 523.688,504.47 564.85,504.47ZM627.265,654.801C627.265,619.008 622.119,592.722 611.829,575.944C601.538,559.166 583.418,550.777 557.468,550.777C531.518,550.777 511.384,558.719 497.067,574.602C482.75,590.485 475.591,613.08 475.591,642.385C475.591,671.691 483.197,698.871 498.409,723.927C513.621,748.982 534.65,761.509 561.495,761.509C576.707,761.509 589.682,755.022 600.42,742.047C618.316,719.676 627.265,690.594 627.265,654.801Z" style="fill:rgb(48,46,44);fill-rule:nonzero;"/>
                        <path d="M813.837,811.844L750.08,811.172C738.895,811.172 732.631,807.817 731.289,801.106C728.604,782.314 727.262,753.009 727.262,713.189L731.96,518.563C731.96,507.378 740.461,501.785 757.462,501.785C765.963,501.785 772.898,503.799 778.267,507.825C783.636,511.852 786.321,517.445 786.321,524.604C785.426,543.395 782.965,569.345 778.938,602.454C774.017,645.853 771.556,677.507 771.556,697.417C771.556,717.327 772.227,741.152 773.569,768.892L872.895,762.852C887.66,762.852 895.042,770.458 895.042,785.67C895.042,798.197 890.344,805.356 880.949,807.146C860.815,810.278 838.444,811.844 813.837,811.844Z" style="fill:rgb(48,46,44);fill-rule:nonzero;"/>
                        <path d="M950.074,811.172C937.547,811.172 931.283,805.803 931.283,795.066L933.967,521.919C933.967,515.655 936.204,510.622 940.679,506.819C945.153,503.016 950.634,501.114 957.121,501.114C963.609,501.114 969.201,502.68 973.899,505.812C978.597,508.944 981.17,514.201 981.617,521.583C982.064,528.966 982.288,545.408 982.288,570.911C982.288,690.371 981.393,763.075 979.604,789.025C979.156,794.842 975.689,799.987 969.201,804.461C962.714,808.935 956.338,811.172 950.074,811.172Z" style="fill:rgb(48,46,44);fill-rule:nonzero;"/>
                        <path d="M1290.33,522.59C1290.33,527.064 1288.1,533.999 1283.62,543.395L1271.54,568.898C1262.59,588.136 1252.19,617.666 1240.33,657.486C1228.48,697.305 1213.83,740.705 1196.38,787.683C1190.56,803.343 1181.61,811.172 1169.53,811.172C1160.58,811.172 1150.96,798.421 1140.67,772.919C1113.83,707.149 1083.85,643.616 1050.74,582.32C1047.61,576.504 1045.15,571.918 1043.36,568.562C1041.57,565.206 1039.78,562.074 1037.99,559.166C1036.2,556.258 1034.97,554.021 1034.3,552.455C1033.63,550.889 1033.07,549.547 1032.62,548.428C1032.17,547.31 1031.84,546.079 1031.62,544.737C1031.39,543.395 1031.28,542.276 1031.28,541.382L1031.28,537.355C1031.28,531.986 1034.3,526.617 1040.34,521.248C1046.38,515.879 1052.42,513.194 1058.46,513.194C1064.5,513.194 1069.53,514.76 1073.56,517.892C1077.59,521.024 1081.61,526.058 1085.64,532.993C1089.67,539.927 1093.25,546.751 1096.38,553.462C1108.01,578.964 1117.18,598.651 1123.89,612.52C1130.61,626.39 1136.76,639.589 1142.35,652.117C1147.94,664.644 1153.31,677.619 1158.46,691.042C1163.6,704.464 1167.07,713.189 1168.86,717.215C1171.99,706.03 1181.72,677.619 1198.05,631.983C1214.38,586.347 1225.9,555.699 1232.62,540.039C1243.8,514.089 1254.99,501.114 1266.17,501.114C1268.41,501.114 1270.65,501.562 1272.88,502.456C1284.52,506.483 1290.33,513.194 1290.33,522.59Z" style="fill:rgb(48,46,44);fill-rule:nonzero;"/>
                        <path d="M1399.73,660.17L1401.07,748.087C1401.07,759.72 1400.84,765.984 1400.4,766.878L1516.5,764.865C1529.48,766.207 1535.96,771.8 1535.96,781.643C1535.96,800.435 1527.24,809.83 1509.79,809.83L1378.25,811.172C1370.2,811.172 1364.27,808.376 1360.46,802.783C1356.66,797.191 1354.54,791.263 1354.09,784.999C1353.64,778.735 1353.42,771.8 1353.42,764.194L1353.42,652.788C1347.6,649.656 1344.69,644.958 1344.69,638.694C1344.69,632.43 1347.15,626.838 1352.08,621.916C1350.73,587.018 1350.06,555.251 1350.06,526.617C1350.06,510.063 1360.13,501.562 1380.26,501.114L1399.06,501.114L1516.5,503.128L1517.17,503.128C1531.49,504.917 1538.65,511.628 1538.65,523.261C1538.65,532.21 1535.96,538.25 1530.6,541.382C1518.96,547.645 1491,550.777 1446.7,550.777C1430.15,550.777 1413.6,550.106 1397.04,548.764C1397.04,589.031 1397.27,611.626 1397.71,616.547C1415.16,616.995 1449.39,617.218 1500.39,617.218C1514.26,619.008 1521.2,625.272 1521.2,636.01C1521.2,641.379 1518.96,646.524 1514.49,651.446C1510.01,656.367 1505.2,659.163 1500.06,659.835C1494.91,660.506 1483.95,660.841 1467.17,660.841C1450.4,660.841 1427.91,660.618 1399.73,660.17Z" style="fill:rgb(48,46,44);fill-rule:nonzero;"/>
                        <path d="M1819.85,504.47C1852.96,504.47 1879.69,517.221 1900.05,542.724C1920.4,568.226 1930.58,603.125 1930.58,647.419C1930.58,691.713 1919.4,729.967 1897.03,762.181C1874.66,794.394 1846.25,810.501 1811.8,810.501C1774.21,810.501 1743.56,794.394 1719.85,762.181C1696.14,729.967 1684.28,690.594 1684.28,644.063C1684.28,597.532 1696.59,562.634 1721.19,539.368C1745.8,516.103 1778.69,504.47 1819.85,504.47ZM1882.26,654.801C1882.26,619.008 1877.12,592.722 1866.83,575.944C1856.54,559.166 1838.42,550.777 1812.47,550.777C1786.52,550.777 1766.38,558.719 1752.07,574.602C1737.75,590.485 1730.59,613.08 1730.59,642.385C1730.59,671.691 1738.19,698.871 1753.41,723.927C1768.62,748.982 1789.65,761.509 1816.49,761.509C1831.7,761.509 1844.68,755.022 1855.42,742.047C1873.31,719.676 1882.26,690.594 1882.26,654.801Z" style="fill:rgb(48,46,44);fill-rule:nonzero;"/>
                        <path d="M2003.74,811.172C1991.21,811.172 1984.94,805.803 1984.94,795.066L1987.63,521.919C1987.63,515.655 1989.87,510.622 1994.34,506.819C1998.81,503.016 2004.3,501.114 2010.78,501.114C2017.27,501.114 2022.86,502.68 2027.56,505.812C2032.26,508.944 2034.83,514.201 2035.28,521.583C2035.73,528.966 2035.95,545.408 2035.95,570.911C2035.95,690.371 2035.05,763.075 2033.27,789.025C2032.82,794.842 2029.35,799.987 2022.86,804.461C2016.38,808.935 2010,811.172 2003.74,811.172Z" style="fill:rgb(48,46,44);fill-rule:nonzero;"/>
                        <path d="M2169.5,811.844L2105.75,811.172C2094.56,811.172 2088.3,807.817 2086.95,801.106C2084.27,782.314 2082.93,753.009 2082.93,713.189L2087.63,518.563C2087.63,507.378 2096.13,501.785 2113.13,501.785C2121.63,501.785 2128.56,503.799 2133.93,507.825C2139.3,511.852 2141.99,517.445 2141.99,524.604C2141.09,543.395 2138.63,569.345 2134.6,602.454C2129.68,645.853 2127.22,677.507 2127.22,697.417C2127.22,717.327 2127.89,741.152 2129.24,768.892L2228.56,762.852C2243.33,762.852 2250.71,770.458 2250.71,785.67C2250.71,798.197 2246.01,805.356 2236.62,807.146C2216.48,810.278 2194.11,811.844 2169.5,811.844Z" style="fill:rgb(48,46,44);fill-rule:nonzero;"/>
                    </g>
                </g>
            </g>
        </g>
    </g>
</svg>
