<?xml version="1.0" encoding="UTF-8" standalone="no"?>
<!DOCTYPE svg PUBLIC "-//W3C//DTD SVG 1.1//EN" "http://www.w3.org/Graphics/SVG/1.1/DTD/svg11.dtd">
<svg width="100%" height="100%" viewBox="0 0 615 1064" version="1.1" xmlns="http://www.w3.org/2000/svg" xmlns:xlink="http://www.w3.org/1999/xlink" xml:space="preserve" xmlns:serif="http://www.serif.com/" style="fill-rule:evenodd;clip-rule:evenodd;stroke-linejoin:round;stroke-miterlimit:2;">
    <g transform="matrix(1,0,0,1,0,-8545)">
        <g transform="matrix(0.556386,0,0,1.16935,0,5398.12)">
            <rect id="znak---kolor-alt" serif:id="znak - kolor alt" x="0" y="2691.38" width="1103.86" height="909.047" style="fill:none;"/>
            <clipPath id="_clip1">
                <rect id="znak---kolor-alt1" serif:id="znak - kolor alt" x="0" y="2691.38" width="1103.86" height="909.047"/>
            </clipPath>
            <g clip-path="url(#_clip1)">
                <g transform="matrix(1.80439,0,0,0.858544,-889.401,2156.02)">
                    <path d="M811.001,916.464C759.671,883.441 661.051,784.329 642.351,634.712C636.057,584.352 811.592,709.171 841.099,917.437C855.135,879.785 876.102,838.542 907.059,805.107L945.02,840.256C892.898,896.549 874.061,978.698 868.178,1013.26C999.376,1022.17 1103.86,1167.96 1103.86,1346.25C1103.86,1530.28 992.548,1679.68 855.44,1679.68C718.333,1679.68 607.019,1530.28 607.019,1346.25C607.019,1180.57 697.251,1042.95 815.3,1017.17C817.261,1003.7 822.689,972.295 834.875,935.203C672.797,1070.31 458.038,1044.49 496.656,1011.41C611.164,913.313 750.809,906.353 811.001,916.464Z" style="fill:rgb(48,46,44);"/>
                </g>
                <g transform="matrix(2.39358,0,0,1.13889,-798.816,1140.29)">
                    <path d="M792.09,1945.38C778.704,2061.59 705.918,2151.62 616.737,2157.75L616.737,1945.38L792.09,1945.38Z" style="fill:rgb(183,57,81);"/>
                </g>
                <g transform="matrix(2.39358,0,0,1.13889,-798.816,1140.29)">
                    <path d="M616.737,1655.71C715.587,1662.5 794.294,1772.38 794.294,1906.73C794.294,1920.44 793.474,1933.9 791.895,1947.03L616.737,1947.03L616.737,1655.71Z" style="fill:rgb(106,164,173);"/>
                </g>
                <g transform="matrix(2.39358,0,0,1.13889,-2527.73,1140.29)">
                    <path d="M1464.81,1733.27C1442.64,1732.64 1420.96,1728.08 1398.65,1728.32C1378.75,1728.53 1358.98,1731.81 1339.05,1731.23L1339.05,1699.51L1435.3,1699.51C1445.99,1709.38 1455.88,1720.7 1464.81,1733.27ZM1503.54,1814.36C1500.93,1815.09 1498.32,1815.79 1495.7,1816.43C1487.94,1818.33 1479.17,1820.49 1471.17,1819.15C1454.3,1816.33 1439.91,1803.95 1425.16,1796.06C1418.37,1792.42 1410.62,1788.62 1402.76,1788.43C1380.26,1787.91 1361.55,1806.12 1339.05,1806.79L1339.05,1775.07C1361.31,1774.88 1381.71,1762.73 1403.97,1763C1427.69,1763.28 1447.4,1780.97 1470.77,1783.25C1477.91,1783.95 1485.02,1783.48 1492.13,1782.47C1496.46,1792.68 1500.28,1803.33 1503.54,1814.36ZM1515.99,1886.25C1500.96,1889.95 1485.92,1894.67 1470.97,1892.63C1446.97,1889.35 1427.89,1867.56 1403.36,1867.11C1381.03,1866.69 1361.38,1881.85 1339.05,1882.35L1339.05,1850.63C1361.78,1850.1 1379.69,1829.97 1402.42,1830.49C1410.42,1830.67 1418.16,1834.8 1424.92,1838.76C1439.62,1847.38 1454.05,1861.27 1471.3,1864.25C1479.3,1865.62 1488.09,1863.33 1495.79,1861.24C1501.48,1859.7 1507.12,1857.82 1512.79,1856.07C1514.3,1865.93 1515.38,1876.01 1515.99,1886.25ZM1339.05,2157.75L1339.05,1926.19C1360.1,1926.66 1380.66,1920.78 1401.67,1920.6C1424.01,1920.41 1444.72,1928.6 1466.81,1929.96C1483.25,1930.97 1499.61,1928.8 1515.98,1927.35C1515.35,1937.74 1514.25,1947.95 1512.71,1957.95C1496.13,1958.17 1479.55,1958.62 1462.98,1958.54C1440.48,1958.43 1418.04,1957.08 1395.52,1957.15C1387.7,1957.17 1379.87,1957.39 1372.05,1957.59L1372.05,2001.75L1502.74,2001.75C1499.39,2012.74 1495.48,2023.33 1491.05,2033.48L1372.05,2033.48L1372.05,2077.31L1466.83,2077.31C1458.8,2088.96 1449.96,2099.59 1440.43,2109.04L1372.05,2109.04L1372.05,2151.5C1361.37,2154.85 1350.34,2156.97 1339.05,2157.75Z" style="fill:white;"/>
                </g>
            </g>
        </g>
    </g>
</svg>
